<svg width="18" height="13" viewBox="0 0 18 13" fill="none" xmlns="http://www.w3.org/2000/svg">
<path d="M4.07677 13H4.07677C4.73014 13 5.32743 12.6268 5.61963 12.0359L7.71429 7.8V0.663307C7.71429 0.296973 7.42058 0 7.05827 0H0.656018C0.29371 0 0 0.296973 0 0.663307V7.13669C0 7.50303 0.29371 7.8 0.656018 7.8H3.85714L2.53391 10.4759C1.96045 11.6355 2.79446 13 4.07677 13ZM14.3625 13H14.3625C15.0159 13 15.6131 12.6268 15.9053 12.0359L18 7.8V0.663307C18 0.296973 17.7063 0 17.344 0H10.9417C10.5794 0 10.2857 0.296973 10.2857 0.663307V7.13669C10.2857 7.50303 10.5794 7.8 10.9417 7.8H14.1429L12.8196 10.4759C12.2462 11.6355 13.0802 13 14.3625 13Z" fill="#8F92A1" fill-opacity="0.6"/>
</svg>
