<svg width="21" height="18" viewBox="0 0 21 18" fill="none" xmlns="http://www.w3.org/2000/svg">
<path d="M12.3525 7.2125L11.2925 6.7225C10.9025 6.5425 10.9025 5.9925 11.2925 5.8125L12.3525 5.3225L12.8425 4.2725C13.0225 3.8825 13.5725 3.8825 13.7525 4.2725L14.2425 5.3325L15.2925 5.8225C15.6825 6.0025 15.6825 6.5525 15.2925 6.7325L14.2325 7.2225L13.7425 8.2725C13.5625 8.6625 13.0125 8.6625 12.8325 8.2725L12.3525 7.2125ZM2.7425 10.2725L3.2325 9.2125L4.2925 8.7225C4.6825 8.5425 4.6825 7.9925 4.2925 7.8125L3.2325 7.3225L2.7425 6.2725C2.5725 5.8825 2.0125 5.8825 1.8425 6.2725L1.3525 7.3325L0.2925 7.8225C-0.0975 8.0025 -0.0975 8.5525 0.2925 8.7325L1.3525 9.2225L1.8425 10.2725C2.0125 10.6625 2.5725 10.6625 2.7425 10.2725ZM7.2525 5.2625L7.8825 3.8625L9.2825 3.2325C9.6725 3.0525 9.6725 2.5025 9.2825 2.3225L7.8825 1.6925L7.2525 0.2925C7.0725 -0.0975 6.5225 -0.0975 6.3425 0.2925L5.7125 1.6925L4.3125 2.3225C3.9225 2.5025 3.9225 3.0525 4.3125 3.2325L5.7125 3.8625L6.3425 5.2625C6.5125 5.6525 7.0725 5.6525 7.2525 5.2625ZM20.6325 5.5425C20.2325 5.1425 19.5625 5.1525 19.1825 5.5825L12.7925 12.7625L9.5025 9.4725C9.1125 9.0825 8.4825 9.0825 8.0925 9.4725L2.0525 15.5225C1.6425 15.9325 1.6425 16.6125 2.0525 17.0225C2.4625 17.4325 3.1425 17.4325 3.5525 17.0225L8.8025 11.7625L12.0525 15.0125C12.4625 15.4225 13.1225 15.4025 13.5025 14.9725L20.6725 6.9025C21.0225 6.5125 21.0025 5.9125 20.6325 5.5425Z" fill="#8F92A1" fill-opacity="0.6"/>
</svg>
