<svg width="20" height="18" viewBox="0 0 20 18" fill="none" xmlns="http://www.w3.org/2000/svg">
<path d="M4.95831 17.25H1.74998C1.24581 17.25 0.833313 16.8375 0.833313 16.3333V7.16667C0.833313 6.6625 1.24581 6.25 1.74998 6.25H4.95831C5.46248 6.25 5.87498 6.6625 5.87498 7.16667V16.3333C5.87498 16.8375 5.46248 17.25 4.95831 17.25ZM11.6041 0.75H8.39581C7.89165 0.75 7.47915 1.1625 7.47915 1.66667V16.3333C7.47915 16.8375 7.89165 17.25 8.39581 17.25H11.6041C12.1083 17.25 12.5208 16.8375 12.5208 16.3333V1.66667C12.5208 1.1625 12.1083 0.75 11.6041 0.75ZM18.25 8.08333H15.0416C14.5375 8.08333 14.125 8.49583 14.125 9V16.3333C14.125 16.8375 14.5375 17.25 15.0416 17.25H18.25C18.7541 17.25 19.1666 16.8375 19.1666 16.3333V9C19.1666 8.49583 18.7541 8.08333 18.25 8.08333Z" fill="white"/>
</svg>
