<svg width="16" height="16" viewBox="0 0 16 16" fill="none" xmlns="http://www.w3.org/2000/svg">
<path d="M8.46449 10.0717V15.1531C8.46449 15.6189 8.84539 16 9.31094 16H14.3896C14.8552 16 15.2361 15.6189 15.2361 15.1531V10.0717C15.2361 9.60593 14.8552 9.22482 14.3896 9.22482H9.31094C8.84539 9.22482 8.46449 9.60593 8.46449 10.0717ZM0.846449 16H5.92514C6.39069 16 6.77159 15.6189 6.77159 15.1531V10.0717C6.77159 9.60593 6.39069 9.22482 5.92514 9.22482H0.846449C0.380902 9.22482 0 9.60593 0 10.0717V15.1531C0 15.6189 0.380902 16 0.846449 16ZM0 1.60275V6.68413C0 7.14993 0.380902 7.53103 0.846449 7.53103H5.92514C6.39069 7.53103 6.77159 7.14993 6.77159 6.68413V1.60275C6.77159 1.13696 6.39069 0.755855 5.92514 0.755855H0.846449C0.380902 0.755855 0 1.13696 0 1.60275ZM10.9615 0.247717L7.36411 3.83856C7.03399 4.16885 7.03399 4.7024 7.36411 5.03269L10.9615 8.632C11.2916 8.96229 11.8249 8.96229 12.155 8.632L15.7524 5.03269C16.0825 4.7024 16.0825 4.16885 15.7524 3.83856L12.1635 0.247717C11.8334 -0.0825725 11.2916 -0.0825725 10.9615 0.247717Z" fill="#8F92A1" fill-opacity="0.6"/>
</svg>
